<svg width="24" height="24" viewBox="0 0 24 24" fill="none" xmlns="http://www.w3.org/2000/svg">
<path d="M15.312 11.028C15.1449 11.0273 14.9795 11.0615 14.8264 11.1285C14.6733 11.1954 14.5359 11.2936 14.4229 11.4167C14.3099 11.5399 14.2239 11.6852 14.1704 11.8435C14.1169 12.0018 14.097 12.1696 14.112 12.336H16.584C16.6 12.1633 16.5783 11.9892 16.5206 11.8257C16.4628 11.6622 16.3703 11.5132 16.2494 11.3889C16.1285 11.2646 15.9821 11.1679 15.8203 11.1056C15.6585 11.0433 15.4851 11.0168 15.312 11.028ZM8.98802 12.36H7.51202V14.688H8.71202C9.91202 14.688 10.44 14.292 10.44 13.488C10.44 12.684 9.88802 12.36 8.98802 12.36ZM10.032 10.224C10.032 9.58798 9.61202 9.20398 8.89202 9.20398H7.51202V11.292H8.53202C9.60002 11.292 10.032 10.908 10.032 10.224Z" fill="black"/>
<path d="M12 0C9.62663 0 7.30655 0.703788 5.33316 2.02236C3.35977 3.34094 1.8217 5.21508 0.913451 7.4078C0.00519941 9.60051 -0.232441 12.0133 0.230582 14.3411C0.693605 16.6689 1.83649 18.807 3.51472 20.4853C5.19295 22.1635 7.33115 23.3064 9.65892 23.7694C11.9867 24.2324 14.3995 23.9948 16.5922 23.0866C18.7849 22.1783 20.6591 20.6402 21.9776 18.6668C23.2962 16.6935 24 14.3734 24 12C24 10.4241 23.6896 8.8637 23.0866 7.4078C22.4835 5.95189 21.5996 4.62902 20.4853 3.51472C19.371 2.40042 18.0481 1.5165 16.5922 0.913446C15.1363 0.310389 13.5759 0 12 0ZM9.24 15.84H6V8.04H9.24C10.644 8.04 11.568 8.772 11.568 9.96C11.5846 10.3591 11.4584 10.7511 11.2121 11.0655C10.9658 11.38 10.6155 11.5964 10.224 11.676C10.4721 11.6817 10.7164 11.7381 10.942 11.8415C11.1675 11.9449 11.3696 12.0933 11.5359 12.2775C11.7021 12.4617 11.829 12.6779 11.9088 12.9129C11.9886 13.1479 12.0197 13.3966 12 13.644C12 15.036 10.8 15.84 9.24 15.84ZM13.5 8.64H17.1V9.24H13.5V8.64ZM18 13.26H14.04V13.428C14.0194 13.6103 14.0381 13.795 14.0948 13.9695C14.1516 14.144 14.2451 14.3043 14.369 14.4397C14.493 14.575 14.6445 14.6822 14.8134 14.754C14.9822 14.8258 15.1645 14.8606 15.348 14.856C15.6056 14.896 15.8689 14.8415 16.0895 14.7026C16.31 14.5636 16.4729 14.3496 16.548 14.1H18C17.8707 14.676 17.5336 15.1842 17.0532 15.5273C16.5728 15.8705 15.9828 16.0245 15.396 15.96C15.0209 15.9979 14.6422 15.9531 14.2863 15.8288C13.9304 15.7046 13.606 15.5038 13.3361 15.2407C13.0661 14.9776 12.8571 14.6586 12.7237 14.306C12.5903 13.9534 12.5358 13.5759 12.564 13.2V12.672C12.5385 12.3078 12.5921 11.9423 12.7211 11.6007C12.8501 11.2592 13.0514 10.9495 13.3113 10.693C13.5712 10.4366 13.8835 10.2394 14.2268 10.1149C14.57 9.99044 14.9361 9.94169 15.3 9.972C15.6627 9.94875 16.0261 10.0035 16.3658 10.1325C16.7056 10.2615 17.0137 10.4618 17.2696 10.7199C17.5254 10.978 17.723 11.2879 17.849 11.6288C17.975 11.9696 18.0265 12.3336 18 12.696V13.26Z" fill="black"/>
</svg>
