<svg width="24" height="25" viewBox="0 0 24 25" fill="none" xmlns="http://www.w3.org/2000/svg">
<path d="M8.23731 0.670545C5.76086 1.52965 3.62517 3.16025 2.14395 5.32285C0.662724 7.48545 -0.085964 10.066 0.00785455 12.6856C0.101673 15.3052 1.03305 17.8256 2.66519 19.8767C4.29733 21.9278 6.54419 23.4014 9.07575 24.0812C11.1281 24.6107 13.2784 24.634 15.3418 24.1489C17.211 23.7291 18.9391 22.831 20.357 21.5426C21.8327 20.1607 22.9038 18.4027 23.4552 16.4577C24.0543 14.3425 24.161 12.1182 23.7669 9.9554H12.2417V14.7363H18.9163C18.7829 15.4988 18.4971 16.2266 18.0759 16.876C17.6546 17.5255 17.1067 18.0833 16.4649 18.5161C15.65 19.0554 14.7311 19.4182 13.7676 19.581C12.8012 19.7608 11.81 19.7608 10.8436 19.581C9.86415 19.3788 8.93757 18.9745 8.12306 18.3941C6.81437 17.4677 5.83172 16.1516 5.31534 14.6336C4.79037 13.0872 4.79037 11.4108 5.31534 9.86439C5.68291 8.78044 6.29055 7.79352 7.09292 6.97727C8.01112 6.02603 9.1736 5.34608 10.4528 5.01201C11.732 4.67795 13.0785 4.70269 14.3446 5.08351C15.3337 5.38698 16.2381 5.91746 16.9858 6.6326C17.7384 5.88387 18.4897 5.13321 19.2397 4.38061C19.627 3.97591 20.0491 3.59058 20.4306 3.1762C19.2891 2.11414 17.9494 1.28767 16.4881 0.744126C13.827 -0.222138 10.9153 -0.248105 8.23731 0.670545Z" fill="black"/>
</svg>
